<?xml version="1.0" encoding="UTF-8" standalone="no"?>
<svg
   xmlns:dc="http://purl.org/dc/elements/1.1/"
   xmlns:cc="http://creativecommons.org/ns#"
   xmlns:rdf="http://www.w3.org/1999/02/22-rdf-syntax-ns#"
   xmlns:svg="http://www.w3.org/2000/svg"
   xmlns="http://www.w3.org/2000/svg"
   xmlns:sodipodi="http://sodipodi.sourceforge.net/DTD/sodipodi-0.dtd"
   xmlns:inkscape="http://www.inkscape.org/namespaces/inkscape"
   version="1.1"
   id="svg2"
   xml:space="preserve"
   width="464.42361"
   height="245.15764"
   viewBox="0 0 464.42361 245.15764"
   sodipodi:docname="logo.svg"
   inkscape:version="1.0.2-2 (e86c870879, 2021-01-15)">
   <metadata
   id="metadata8">
        <rdf:RDF>
            <cc:Work
   rdf:about="">
                <dc:format>image/svg+xml</dc:format>
                <dc:type
   rdf:resource="http://purl.org/dc/dcmitype/StillImage" />
            </cc:Work>
        </rdf:RDF>
    </metadata>
    <defs
   id="defs6">
        <clipPath
   clipPathUnits="userSpaceOnUse"
   id="clipPath18">
            <path
   d="M 0,1190.551 H 841.89 V 0 H 0 Z"
   id="path16" />
        </clipPath>
    </defs>
    <sodipodi:namedview
   pagecolor="#ffffff"
   bordercolor="#666666"
   borderopacity="1"
   objecttolerance="10"
   gridtolerance="10"
   guidetolerance="10"
   inkscape:pageopacity="0"
   inkscape:pageshadow="2"
   inkscape:window-width="1920"
   inkscape:window-height="1017"
   id="namedview4"
   inkscape:document-rotation="0"
   showgrid="false"
   inkscape:zoom="1.9909091"
   inkscape:cx="274.20434"
   inkscape:cy="159.58254"
   inkscape:window-x="-8"
   inkscape:window-y="-8"
   inkscape:window-maximized="1"
   inkscape:current-layer="g10" />

    <g
   id="g10"
   inkscape:groupmode="layer"
   inkscape:label="AaK logo prøver"
   transform="matrix(1.3333333,0,0,-1.3333333,-0.7956639,1587.1652)">
        <g
   id="g12"
   transform="translate(-55.753426,112.63699)">
            <g
   id="g14"
   clip-path="url(#clipPath18)">
                <g
   id="g20"
   transform="translate(216.9551,1012.4348)">
                    <path
   d="m 0,0 c -5.437,-13.913 -14.533,-23.817 -26.236,-31.583 12.977,5.192 25.438,11.207 36.272,20.844 C 6.71,-7.18 3.54,-3.788 0,0 m 17.284,-1.598 c 6.186,9.883 6.179,20.224 1.151,30.648 -5.276,10.938 -13.701,19.224 -23.174,26.545 -0.593,0.458 -1.285,0.788 -1.962,1.197 2.113,-3.924 4.492,-7.509 6.063,-11.417 C 3.682,34.631 4.245,23.398 3.007,11.989 2.894,10.938 3.213,9.37 3.936,8.775 8.194,5.267 12.632,1.977 17.284,-1.598 m 9.181,-8.316 c -21.088,-16.818 -46.651,-22.887 -71.764,-30.247 -24.425,-7.159 -48.116,-3.171 -71.585,3.798 -8.627,2.561 -17.008,6.357 -24.995,10.552 -4.558,2.394 -8.85,5.419 -12.229,9.335 -2.862,3.315 -5.222,7.361 -6.1,11.688 -0.384,1.895 -0.474,3.845 -0.336,5.774 0.232,3.266 1.305,6.124 2.816,8.993 1.295,2.458 2.881,4.755 4.665,6.882 1.735,2.068 3.654,3.976 5.684,5.753 4.569,4 9.328,7.875 14.406,11.186 20.378,13.283 42.89,21.513 66.455,26.921 3.96,0.909 7.975,1.66 11.982,2.309 4.039,0.655 8.115,1.475 12.182,1.929 2.771,0.309 5.563,0.329 8.351,0.34 3.2,0.013 6.428,0.012 9.588,-0.561 3.115,-0.565 6.139,-1.704 9.107,-2.779 3.793,-1.373 7.479,-3.029 11.061,-4.881 C 2.946,53.36 9.707,48.877 16.36,44.281 17.937,43.192 19.508,42.096 21.079,41 c 0.41,-0.286 4.787,-3.149 4.727,-3.283 1.625,3.588 4.218,5.961 8.667,5.102 2.96,-0.571 5.09,-2.973 5.601,-6.242 0.627,-4.012 -0.758,-6.491 -5.235,-9.146 2.459,-4.025 3.816,-8.421 8.445,-11.316 8.022,-5.017 7.992,-12.775 0.605,-18.689 -2.811,-2.251 -5.923,-4.127 -9.369,-5.599 1.261,1.092 2.591,2.116 3.767,3.294 1.278,1.28 2.567,2.599 3.581,4.086 2.358,3.456 1.824,4.682 -2.302,7.066 -2.885,-4.132 -5.732,-8.21 -8.579,-12.287 -1.507,-1.3 -3.014,-2.6 -4.522,-3.9"
   style="fill:#231f20;fill-opacity:1;fill-rule:nonzero;stroke:none"
   id="path22" />
                </g>
                <g
   id="g24"
   transform="translate(150.461,894.9694)">
                    <path
   d="m 0,0 c 1.163,4.877 2.08,9.344 3.302,13.726 2.554,9.149 5.447,18.206 7.821,27.399 0.811,3.138 2.404,4.212 5.29,4.2 1.069,-0.005 2.141,0.031 3.207,-0.033 2.105,-0.126 3.149,-0.812 2.211,-3.252 -1.205,-3.135 -2.061,-6.403 -3.225,-10.115 4.32,3.921 8.125,7.485 12.053,10.906 3.632,3.164 6.694,3.063 11.059,-0.327 C 37.661,38.679 33.554,34.972 29.634,31.076 21.005,22.5 22.052,25.992 25.372,14.914 26.53,11.05 28.256,7.355 29.91,3.102 29.144,2.474 28.115,1.402 26.886,0.664 23.122,-1.595 20.69,-1.139 18.725,2.694 16.86,6.333 15.576,10.269 13.663,14.998 12.593,11.031 11.334,7.745 10.901,4.354 10.486,1.101 8.949,-0.055 5.959,-0.006 4.162,0.024 2.363,0 0,0"
   style="fill:#231f20;fill-opacity:1;fill-rule:nonzero;stroke:none"
   id="path26" />
                </g>
                <g
   id="g28"
   transform="translate(231.8316,974.2658)">
                    <path
   d="M 0,0 C -0.191,0.067 -0.383,0.134 -0.575,0.201 -2.549,-3.83 -4.523,-7.861 -6.606,-12.116 h 5.254 C -0.887,-7.953 -0.443,-3.976 0,0 m -2.059,-21.139 c -2.753,0 -5.195,0.135 -7.605,-0.082 -0.719,-0.065 -1.465,-1.029 -1.985,-1.737 -0.493,-0.669 -0.731,-1.535 -1.037,-2.331 -1.997,-5.216 -1.993,-5.218 -7.491,-4.615 -3.355,0.367 -3.894,1.014 -2.532,4.028 2.766,6.124 5.592,12.23 8.683,18.194 3.387,6.539 7.213,12.85 10.618,19.38 1.361,2.611 3.095,3.912 6.013,3.608 0.422,-0.045 0.855,-0.006 1.282,0.016 6.652,0.352 6.695,-0.027 6.168,-6.53 C 9.09,-3.119 8.495,-15.063 7.934,-27.002 7.851,-28.768 7.423,-29.4 5.793,-29.807 c -6.914,-1.721 -8.305,-0.614 -7.857,6.464 0.04,0.632 0.005,1.269 0.005,2.204"
   style="fill:#231f20;fill-opacity:1;fill-rule:nonzero;stroke:none"
   id="path30" />
                </g>
                <g
   id="g32"
   transform="translate(387.2408,918.1999)">
                    <path
   d="M 0,0 C 0.2,-0.283 0.399,-0.565 0.599,-0.848 2.591,-0.056 4.875,0.37 6.479,1.649 7.637,2.573 7.892,4.631 8.549,6.183 7.158,6.73 5.793,7.574 4.364,7.706 3.601,7.776 2.347,6.791 1.975,5.979 1.104,4.083 0.633,2.004 0,0 m -4.692,-16.143 c 4.567,-0.807 7.975,0.758 9.053,3.821 0.749,2.13 0.297,3.89 -2.058,4.536 -2.067,0.568 -4.487,1.712 -5.314,-1.756 -0.51,-2.142 -1.085,-4.269 -1.681,-6.601 m 15.188,12.832 c 4.287,-4.52 4.064,-10.478 -0.507,-15.407 -4.404,-4.751 -14.88,-7.084 -20.913,-4.618 -2.364,0.965 -3.525,2.447 -2.649,5.253 2.606,8.347 5.041,16.747 7.548,25.125 0.244,0.817 0.871,1.692 0.728,2.425 -0.866,4.468 2.281,4.933 5.269,5.193 3.159,0.275 6.428,0.538 9.525,0.037 7.868,-1.274 10.277,-8.05 5.205,-14.209 -1.135,-1.378 -2.667,-2.428 -4.206,-3.799"
   style="fill:#231f20;fill-opacity:1;fill-rule:nonzero;stroke:none"
   id="path34" />
                </g>
                <g
   id="g36"
   transform="translate(304.8614,966.9323)">
                    <path
   d="M 0,0 C 3.876,0.272 6.777,1.102 8.447,4.117 9.328,5.708 9.188,7.401 7.154,7.956 5.461,8.417 3.281,9.536 2.216,7.008 1.328,4.899 0.814,2.632 0,0 m -4.583,-15.582 c 4.77,-0.813 8.15,0.714 9.155,3.885 0.575,1.814 0.4,3.689 -1.664,4.162 -1.654,0.379 -4.56,0.543 -5.059,-0.297 -1.337,-2.254 -1.681,-5.097 -2.432,-7.75 m 15.096,12.751 c 4.133,-3.991 4.267,-9.409 0.445,-14.412 -4.122,-5.395 -15.9,-8.359 -22.045,-5.48 -2.169,1.016 -3.16,2.53 -2.33,5.164 2.628,8.344 5.062,16.748 7.573,25.129 0.245,0.817 0.83,1.681 0.708,2.435 -0.664,4.11 1.993,4.904 5.06,5.133 3.072,0.23 6.199,0.538 9.236,0.206 3.491,-0.382 6.673,-1.84 7.915,-5.583 C 18.298,6.077 16.74,3.067 14.322,0.44 13.25,-0.723 11.914,-1.644 10.513,-2.831"
   style="fill:#231f20;fill-opacity:1;fill-rule:nonzero;stroke:none"
   id="path38" />
                </g>
                <g
   id="g40"
   transform="translate(329.0787,954.404)">
                    <path
   d="m 0,0 c 0.453,-0.742 1.05,-2.918 2.172,-3.234 1.218,-0.344 3.05,0.856 4.373,1.742 0.915,0.614 1.674,1.743 2.068,2.804 1.593,4.281 3.263,8.563 4.368,12.979 0.386,1.54 -0.776,3.468 -1.232,5.219 C 9.981,18.801 7.718,18.559 6.534,17.3 2.267,12.767 0.635,7.019 0,0 m -8.657,2.272 c 0.312,6.219 2.862,13.603 8.235,19.776 1.845,2.119 4.281,3.888 6.754,5.266 6.189,3.451 16.476,-1.092 15.831,-9.997 C 21.475,7.804 18.213,-0.581 11.061,-7.146 9.901,-8.21 8.458,-9.049 7.019,-9.712 -1.885,-13.816 -8.703,-9.424 -8.657,2.272"
   style="fill:#231f20;fill-opacity:1;fill-rule:nonzero;stroke:none"
   id="path42" />
                </g>
                <g
   id="g44"
   transform="translate(360.7808,964.1423)">
                    <path
   d="M 0,0 C 4.328,0.731 6.872,2.841 8.665,5.903 9.597,7.494 10,9.314 7.671,10.078 5.748,10.708 3.507,11.803 2.675,8.42 2.021,5.765 1.03,3.193 0,0 m -13.655,-18.939 c 2.793,9.576 5.567,19.094 8.347,28.611 0.3,1.023 1.059,2.116 0.884,3.04 -0.764,4.024 1.872,4.904 4.766,5.08 3.584,0.219 7.29,0.41 10.779,-0.253 4.82,-0.915 6.981,-4.683 6.316,-9.594 C 16.694,2.454 13.772,-1.528 8.961,-4.172 8.036,-4.68 7.068,-5.111 5.691,-5.789 c 1.73,-4.062 3.425,-8.043 5.295,-12.436 -1.51,-0.575 -3.129,-1.224 -4.771,-1.806 -2.297,-0.816 -4.015,0.023 -5.063,2.099 -1.288,2.551 -2.423,5.179 -3.863,8.289 -0.538,-2.222 -1.009,-3.99 -1.389,-5.777 -1.068,-5.032 -3.734,-6.25 -9.555,-3.519"
   style="fill:#231f20;fill-opacity:1;fill-rule:nonzero;stroke:none"
   id="path46" />
                </g>
                <g
   id="g48"
   transform="translate(264.3677,914.8088)">
                    <path
   d="M 0,0 C 4.394,0.844 6.964,3.102 8.828,6.187 9.732,7.686 9.774,9.534 7.817,10.15 6.127,10.682 3.811,12 2.833,8.919 1.949,6.13 1.062,3.341 0,0 m -2.715,-9.682 c -0.534,-2.181 -1.027,-3.971 -1.406,-5.785 -1.036,-4.971 -3.85,-6.176 -9.436,-3.318 2.532,8.832 5.134,17.813 7.668,26.813 0.629,2.232 0.936,4.556 1.598,6.777 0.255,0.855 0.933,1.955 1.681,2.231 4.845,1.784 9.825,1.997 14.755,0.381 3.539,-1.159 5.319,-3.76 5.334,-7.526 C 17.5,4.071 14.901,-0.355 10.026,-3.452 8.783,-4.242 7.429,-4.859 5.727,-5.77 c 1.712,-4.016 3.409,-7.993 5.317,-12.466 -1.981,-0.637 -4.023,-1.653 -6.133,-1.826 -1.13,-0.094 -2.83,0.982 -3.485,2.025 -1.562,2.489 -2.656,5.271 -4.141,8.355"
   style="fill:#231f20;fill-opacity:1;fill-rule:nonzero;stroke:none"
   id="path50" />
                </g>
                <g
   id="g52"
   transform="translate(394.0811,957.944)">
                    <path
   d="m 0,0 c -2.615,0.379 -3.973,0.576 -5.323,0.771 -0.097,4.841 0.217,5.214 4.922,5.854 9.296,1.265 9.789,0.73 7.318,-8.188 -0.799,-2.88 -1.681,-5.739 -2.616,-8.578 -1.369,-4.158 -2.042,-4.489 -6.186,-3.963 -1.376,0.174 -2.873,0.159 -4.202,-0.193 -7.438,-1.97 -12.886,1.778 -12.667,9.452 0.26,9.109 3.229,17.444 9.508,24.248 3.489,3.781 7.965,6.003 13.217,5.01 1.98,-0.375 4.153,-1.784 5.418,-3.374 1.718,-2.161 1.758,-4.754 -1.002,-6.658 C 6.999,13.424 5.761,12.249 4.504,11.213 4.125,11.477 3.905,11.555 3.807,11.71 2.901,13.151 2.186,15.614 1.082,15.799 -0.268,16.026 -2.308,14.673 -3.403,13.433 -7.339,8.976 -9.238,3.511 -9.89,-2.314 c -0.168,-1.493 0.485,-4.251 1.24,-4.431 1.629,-0.39 3.977,-0.003 5.27,1.024 C -1.929,-4.568 -1.317,-2.36 0,0"
   style="fill:#231f20;fill-opacity:1;fill-rule:nonzero;stroke:none"
   id="path54" />
                </g>
                <g
   id="g56"
   transform="translate(379.8917,932.1364)">
                    <path
   d="m 0,0 c -2.345,-8.044 -4.625,-15.809 -6.867,-23.583 -0.888,-3.08 -1.729,-6.174 -2.531,-9.276 -1.087,-4.205 -3.976,-5.671 -8.235,-4.273 -0.897,0.295 -2.049,0.32 -2.94,0.03 -3.085,-1.004 -6.188,-1.479 -8.869,0.647 -2.573,2.041 -2.67,5.126 -1.873,7.986 2.718,9.756 5.634,19.456 8.466,29.149 h 8.726 c -2.205,-6.591 -4.357,-12.835 -6.371,-19.123 -0.845,-2.64 -1.55,-5.349 -2.007,-8.078 -0.183,-1.091 0.478,-2.323 0.754,-3.492 1.18,0.298 2.642,0.266 3.472,0.973 1.147,0.978 2.19,2.399 2.629,3.83 2.129,6.94 4.099,13.932 6.013,20.937 1.301,4.764 1.219,4.808 6.164,4.717 C -2.433,0.426 -1.4,0.187 0,0"
   style="fill:#231f20;fill-opacity:1;fill-rule:nonzero;stroke:none"
   id="path58" />
                </g>
                <g
   id="g60"
   transform="translate(334.5362,930.53)">
                    <path
   d="m 0,0 c -4.593,-4.384 -8.908,-8.665 -13.415,-12.732 -2.112,-1.907 -2.638,-3.813 -1.62,-6.45 1.726,-4.47 3.26,-9.015 5.006,-13.9 -0.291,-0.265 -0.933,-0.981 -1.698,-1.525 -3.602,-2.559 -6.039,-2.122 -8.027,1.764 -1.398,2.73 -2.332,5.697 -3.8,9.375 -0.82,-2.994 -1.742,-5.321 -2.045,-7.725 -0.405,-3.221 -1.781,-4.811 -5.136,-4.472 -1.246,0.126 -2.515,0.02 -4.395,0.02 1.213,4.957 2.218,9.501 3.448,13.985 1.751,6.386 3.663,12.729 5.515,19.087 1.485,5.096 4.34,6.34 9.955,4.015 -0.931,-3.138 -1.879,-6.336 -2.95,-9.948 3.277,2.991 6.139,5.714 9.121,8.298 C -6.271,3.059 -4.729,3.083 0,0"
   style="fill:#231f20;fill-opacity:1;fill-rule:nonzero;stroke:none"
   id="path62" />
                </g>
                <g
   id="g64"
   transform="translate(259.4669,959.2741)">
                    <path
   d="M 0,0 C 0.307,3.012 0.585,5.755 0.865,8.499 0.598,8.557 0.33,8.615 0.063,8.673 -1.267,5.878 -2.596,3.084 -4.063,0 Z m -0.634,-7.722 c -1.103,0.052 -1.748,0.029 -2.376,0.12 -3.782,0.552 -5.901,-0.961 -6.739,-4.784 -0.571,-2.607 -6.341,-3.984 -8.059,-1.96 -0.507,0.599 -0.296,2.241 0.137,3.137 3.579,7.392 7.233,14.749 10.982,22.056 1.704,3.322 3.557,6.585 5.596,9.708 0.635,0.972 2.04,1.835 3.201,2.004 7.813,1.136 8.112,0.524 7.38,-7.309 C 8.645,6.225 8.106,-2.847 7.95,-11.908 7.881,-15.93 5.148,-14.887 3.192,-15.349 c -2.272,-0.536 -3.763,0.409 -3.82,2.946 -0.033,1.471 -0.006,2.944 -0.006,4.681"
   style="fill:#231f20;fill-opacity:1;fill-rule:nonzero;stroke:none"
   id="path66" />
                </g>
                <g
   id="g68"
   transform="translate(222.3477,918.7722)">
                    <path
   d="m 0,0 c -0.26,0.028 -0.521,0.056 -0.78,0.083 -1.372,-2.865 -2.743,-5.729 -4.321,-9.024 1.864,0.112 2.985,0.18 4.179,0.253 C -0.595,-5.607 -0.298,-2.803 0,0 m -1.517,-16.813 c -6.477,1.234 -7.134,0.873 -9.305,-4.819 -0.835,-2.188 -6.695,-3.232 -8.08,-1.363 -0.342,0.46 -0.373,1.484 -0.099,2.018 5.752,11.205 11.526,22.398 17.416,33.53 0.945,1.786 8.926,2.374 10.159,0.823 C 9.055,12.771 8.966,11.592 8.898,10.692 8.265,2.275 7.555,-6.135 6.932,-14.553 c -0.134,-1.805 -0.01,-3.631 0.01,-5.448 0.038,-3.459 -0.69,-4.019 -5.324,-4.243 -3.056,-0.148 -3.093,1.956 -3.132,4.079 -0.019,1.056 -0.003,2.113 -0.003,3.352"
   style="fill:#231f20;fill-opacity:1;fill-rule:nonzero;stroke:none"
   id="path70" />
                </g>
                <g
   id="g72"
   transform="translate(288.6202,909.2282)">
                    <path
   d="M 0,0 C -0.612,-2.406 -1.127,-4.433 -1.752,-6.891 H 9.449 C 9.102,-9.241 8.912,-11.199 8.465,-13.096 8.347,-13.594 7.436,-14.24 6.88,-14.248 1.034,-14.332 -4.813,-14.3 -11.287,-14.3 c 0.341,2.508 0.43,5.262 1.123,7.855 1.846,6.902 3.975,13.728 5.939,20.599 0.497,1.737 1.089,3.521 1.13,5.295 0.062,2.733 1.339,3.661 3.887,3.888 5.73,0.511 11.435,1.001 17.425,-0.371 -0.599,-1.596 -1.134,-2.86 -1.548,-4.162 -0.622,-1.952 -1.788,-2.442 -3.862,-2.27 C 4.294,17.238 3.664,16.608 2.435,7.305 4.123,7.305 5.787,7.369 7.443,7.287 9.109,7.204 10.767,6.976 12.837,6.771 12.174,4.883 11.907,3.233 11.053,1.985 10.416,1.054 9.068,0.211 7.953,0.088 5.427,-0.19 2.85,0 0,0"
   style="fill:#231f20;fill-opacity:1;fill-rule:nonzero;stroke:none"
   id="path74" />
                </g>
                <g
   id="g76"
   transform="translate(240.7525,925.3566)">
                    <path
   d="M 0,0 H -6.001 C -6.463,5.378 -4.749,7.513 0.279,7.602 5.81,7.699 11.344,7.624 17.526,7.624 16.968,4.959 16.506,2.751 16.04,0.53 15.468,0.4 15.059,0.224 14.65,0.226 8.591,0.256 8.509,0.284 6.954,-5.479 5.121,-12.272 3.408,-19.099 1.721,-25.93 c -1.146,-4.641 -1.153,-4.729 -5.913,-4.708 -1.142,0.006 -2.284,0.188 -4.063,0.346 C -5.479,-20.104 -2.801,-10.276 0,0"
   style="fill:#231f20;fill-opacity:1;fill-rule:nonzero;stroke:none"
   id="path78" />
                </g>
                <g
   id="g80"
   transform="translate(336.1422,902.8405)">
                    <path
   d="M 0,0 C 3.408,-0.236 6.577,-0.455 10.225,-0.707 9.905,-2.804 9.819,-4.718 9.244,-6.472 9.01,-7.185 7.735,-7.962 6.898,-8.005 2.306,-8.239 -2.298,-8.354 -6.896,-8.307 c -2.973,0.031 -3.692,1.268 -2.704,4.944 1.83,6.809 3.845,13.568 5.802,20.342 0.948,3.286 1.945,6.557 2.909,9.837 0.75,2.551 6.391,4.658 8.369,2.912 C 8.076,29.202 8.09,27.549 7.81,26.572 5.604,18.874 3.258,11.215 0.964,3.541 0.632,2.428 0.353,1.299 0,0"
   style="fill:#231f20;fill-opacity:1;fill-rule:nonzero;stroke:none"
   id="path82" />
                </g>
                <g
   id="g84"
   transform="translate(192.2818,902.8464)">
                    <path
   d="m 0,0 c 3.514,-0.252 6.67,-0.479 10.053,-0.722 0,-0.773 0.03,-1.282 -0.005,-1.786 C 9.66,-7.975 9.484,-8.112 3.924,-8.151 0.723,-8.174 -2.478,-8.262 -5.678,-8.354 c -4.031,-0.118 -4.994,0.807 -3.967,4.661 2.032,7.621 4.309,15.176 6.493,22.756 0.649,2.253 1.333,4.497 1.985,6.749 0.994,3.432 5.137,5.609 8.272,4.048 C 7.743,29.542 8.107,27.654 7.841,26.703 5.972,20.035 3.894,13.426 1.908,6.792 1.247,4.583 0.659,2.352 0,0"
   style="fill:#231f20;fill-opacity:1;fill-rule:nonzero;stroke:none"
   id="path86" />
                </g>
                <g
   id="g168"
   transform="translate(279.5435,951.6032)">
                    <path
   d="M 0,0 H 10.283 C 9.976,-2.178 9.984,-4.004 9.387,-5.604 9.06,-6.48 7.742,-7.499 6.819,-7.552 2.667,-7.795 -1.503,-7.737 -5.667,-7.746 c -4.316,-0.008 -4.94,0.657 -3.83,4.935 1.581,6.085 3.403,12.107 5.139,18.15 1.206,4.2 2.421,8.397 3.674,12.584 0.614,2.051 7.243,3.807 8.447,2.117 C 8.288,29.304 8.084,27.798 7.785,26.765 5.533,18.983 3.169,11.233 0.856,3.469 0.559,2.468 0.353,1.44 0,0"
   style="fill:#231f20;fill-opacity:1;fill-rule:nonzero;stroke:none"
   id="path170" />
                </g>
                <g
   id="g368"
   transform="translate(217.6197,1023.6735)">
                    <path
   d="m 0,0 c -2.632,0.857 -4.928,1.734 -7.292,2.349 -6.376,1.657 -12.091,0.02 -16.35,-4.791 -5.625,-6.356 -9.834,-12.27 -15.13,-18.915 -0.835,-1.237 -1.087,-1.52 -1.677,-3.119 2.75,2.375 5.623,4.975 8.004,6.874 4.328,3.452 8.596,7.009 13.155,10.134 3.94,2.702 12.943,1.015 15.758,-2.783 0.526,-0.71 0.125,-2.445 -0.335,-3.493 -5.149,-11.726 -13.672,-20.427 -24.42,-27.169 -13.195,-8.276 -27.674,-12.613 -43.102,-12.608 -14.571,0.005 -28.925,2.617 -42.95,6.732 -11.104,3.259 -21.991,7.075 -31.397,14.045 -3.315,2.456 -6.659,5.171 -9.119,8.426 -7.098,9.389 -5.792,19.662 2.643,29.023 11.603,12.877 26.093,21.419 41.608,28.501 18.269,8.34 37.303,14.326 57.146,17.382 7.776,1.197 15.731,1.478 23.617,1.659 13.814,0.317 22.629,-6.785 27.234,-19.491 C 1.028,22.726 2.046,12.39 0.66,1.818 0.595,1.321 0.317,0.853 0,0"
   style="fill:#e71d24;fill-opacity:1;fill-rule:nonzero;stroke:none"
   id="path370" />
                </g>
            </g>
        </g>
    </g>
</svg>
